<svg xmlns="http://www.w3.org/2000/svg" viewBox="-38.4 -64 332.8 384">
  <defs/>
  <defs>
    <radialGradient id="b" cx="161.8" cy="68.9" r="95.4" gradientTransform="matrix(1 0 0 -.95 -5 244)" gradientUnits="userSpaceOnUse">
      <stop offset=".7" stop-opacity="0"/>
      <stop offset=".9" stop-opacity=".5"/>
      <stop offset="1"/>
    </radialGradient>
    <radialGradient id="d" cx="-340.3" cy="63" r="143.2" gradientTransform="matrix(.15 -.99 -.8 -.12 172 -130)" gradientUnits="userSpaceOnUse">
      <stop offset=".8" stop-opacity="0"/>
      <stop offset=".9" stop-opacity=".5"/>
      <stop offset="1"/>
    </radialGradient>
    <radialGradient id="e" cx="113.4" cy="570.2" r="202.4" gradientTransform="matrix(-.04 1 2.13 .08 -1184 -112)" gradientUnits="userSpaceOnUse">
      <stop offset="0" stop-color="#35c1f1"/>
      <stop offset=".1" stop-color="#34c1ed"/>
      <stop offset=".2" stop-color="#2fc2df"/>
      <stop offset=".3" stop-color="#2bc3d2"/>
      <stop offset=".7" stop-color="#36c752"/>
    </radialGradient>
    <radialGradient id="f" cx="376.5" cy="568" r="97.3" gradientTransform="matrix(.28 .96 .78 -.23 -308 -153)" gradientUnits="userSpaceOnUse">
      <stop offset="0" stop-color="#66eb6e"/>
      <stop offset="1" stop-color="#66eb6e" stop-opacity="0"/>
    </radialGradient>
    <linearGradient id="a" x1="63.3" x2="241.7" y1="84" y2="84" gradientTransform="matrix(1 0 0 -1 -5 261)" gradientUnits="userSpaceOnUse">
      <stop offset="0" stop-color="#0c59a4"/>
      <stop offset="1" stop-color="#114a8b"/>
    </linearGradient>
    <linearGradient id="c" x1="157.3" x2="46" y1="161.4" y2="40.1" gradientTransform="matrix(1 0 0 -1 -5 261)" gradientUnits="userSpaceOnUse">
      <stop offset="0" stop-color="#1b9de2"/>
      <stop offset=".2" stop-color="#1595df"/>
      <stop offset=".7" stop-color="#0680d7"/>
      <stop offset="1" stop-color="#0078d4"/>
    </linearGradient>
  </defs>
  <path fill="url(#a)" d="M231 191a94 94 0 01-10 4 102 102 0 01-36 7c-48 0-89-33-89-75a31 31 0 0117-27c-43 2-54 46-54 73 0 73 68 81 82 81 8 0 20-2 27-5h2a128 128 0 0066-53 4 4 0 00-5-5z"/>
  <path fill="url(#b)" d="M231 191a94 94 0 01-10 4 102 102 0 01-36 7c-48 0-89-33-89-75a31 31 0 0117-27c-43 2-54 46-54 73 0 73 68 81 82 81 8 0 20-2 27-5h2a128 128 0 0066-53 4 4 0 00-5-5z" opacity=".3" style="isolation:isolate"/>
  <path fill="url(#c)" d="M106 241a79 79 0 01-23-21 81 81 0 0130-120c3-1 8-4 15-4a32 32 0 0126 13 32 32 0 016 19s25-80-80-80C36 48 0 90 0 126a130 130 0 0012 56 128 128 0 00157 67 76 76 0 01-63-8z"/>
  <path fill="url(#d)" d="M106 241a79 79 0 01-23-21 81 81 0 0130-120c3-1 8-4 15-4a32 32 0 0126 13 32 32 0 016 19s25-80-80-80C36 48 0 90 0 126a130 130 0 0012 56 128 128 0 00157 67 76 76 0 01-63-8z" opacity=".4" style="isolation:isolate"/>
  <path fill="url(#e)" d="M152 149c0 1-3 2-3 6 0 2 2 5 5 7 14 10 41 8 41 8a60 60 0 0031-8 61 61 0 0030-53c0-22-8-37-11-44-22-41-67-65-117-65A128 128 0 000 126c0-36 37-66 80-66 4 0 23 0 42 10 16 9 25 19 31 29 6 11 7 25 7 30s-3 13-8 20z"/>
  <path fill="url(#f)" d="M152 149c0 1-3 2-3 6 0 2 2 5 5 7 14 10 41 8 41 8a60 60 0 0031-8 61 61 0 0030-53c0-22-8-37-11-44-22-41-67-65-117-65A128 128 0 000 126c0-36 37-66 80-66 4 0 23 0 42 10 16 9 25 19 31 29 6 11 7 25 7 30s-3 13-8 20z"/>
</svg>
