<?xml version="1.0" standalone="no"?>
<svg
  width="200"
  height="200"
  viewBox="0 0 500 500"
  xmlns="http://www.w3.org/2000/svg"
>
  <linearGradient id="shape_gradient" x1="0" y1="0" x2="0" y2="1">
    <stop offset="0" stop-color="#ffbe88"></stop>
    <stop offset="0.5" stop-color="#ffa4bc"></stop>
    <stop offset="1" stop-color="#ff94db"></stop>
  </linearGradient>
  <linearGradient id="shape_gradient_blue" x1="0" y1="0" x2="0" y2="1">
    <stop offset="0.65" stop-color="#4bcffa"></stop>
    <stop offset=".7" stop-color="#199ff9"></stop>
  </linearGradient>
<g xmlns="http://www.w3.org/2000/svg" transform="translate(250, 250)" style="&#10;    opacity: 0.8;&#10;">
    
    <path d="M158.3,-198.7C205.7,-183.4,245,-137.9,250.1,-89.1C255.2,-40.3,226,11.8,196.5,51.8C166.9,91.7,136.9,119.5,104.1,150.7C71.3,181.8,35.7,216.4,-6.2,224.9C-48,233.4,-96,215.8,-135.3,186.7C-174.6,157.7,-205.2,117.2,-218,72.2C-230.8,27.2,-225.7,-22.2,-207.7,-64.3C-189.6,-106.3,-158.6,-140.9,-121.8,-159.7C-85,-178.4,-42.5,-181.2,6.5,-190.1C55.4,-199,110.9,-214,158.3,-198.7Z" fill="url(#shape_gradient)"/>
    <path d="M107.2,-150.9C142.7,-121.8,177.9,-95.5,188,-61.7C198.1,-27.9,183.2,13.4,176,63.9C168.8,114.4,169.4,174.1,141.3,200.8C113.2,227.5,56.6,221.3,8.9,209C-38.8,196.7,-77.6,178.5,-110.9,153.4C-144.2,128.4,-171.9,96.7,-171.9,63.7C-171.8,30.7,-143.9,-3.5,-128.8,-39.3C-113.6,-75,-111.2,-112.3,-91.8,-146.7C-72.5,-181.1,-36.2,-212.6,-0.2,-212.3C35.9,-212,71.7,-180,107.2,-150.9Z" fill="url(#shape_gradient)"/>

    <path d="M126.6,-191.5C156.6,-177.7,168.4,-130,177.2,-87.7C186.1,-45.3,192,-8.4,181.4,22.1C170.8,52.6,143.6,76.7,117.1,94C90.5,111.4,64.7,121.9,36.7,134.3C8.7,146.8,-21.4,161.2,-48.8,157.2C-76.2,153.3,-100.8,131,-135.8,108C-170.7,85,-216,61.3,-235.7,24.6C-255.5,-12.1,-249.6,-61.7,-225.3,-97.8C-200.9,-133.9,-158,-156.6,-117.4,-165.5C-76.8,-174.5,-38.4,-169.7,5,-177.4C48.3,-185.2,96.6,-205.3,126.6,-191.5Z" fill="url(#shape_gradient_blue)"/>
     <path d="M63,-58.2C86.4,-20.9,113.4,5.6,118.8,45.1C124.1,84.7,107.8,137.4,71.6,158.7C35.4,179.9,-20.7,169.7,-79.3,147.9C-138,126.1,-199.1,92.8,-210.1,47.3C-221,1.8,-181.6,-55.8,-138.2,-97.7C-94.9,-139.7,-47.4,-165.8,-13.8,-154.8C19.8,-143.8,39.6,-95.6,63,-58.2Z" fill="#fcb900"/>

	</g>
</svg>
    